<svg xmlns="http://www.w3.org/2000/svg" preserveAspectRatio="xMidYMid" width="42" height="40" viewBox="0 0 42 40"><defs><style>.cls-1 { fill: #000; fill-rule: evenodd; }</style></defs><path d="M0 22.743v-11.87h42v11.87H0zm8.375-10.35l-5.32 8.83h4.66l5.32-8.83h-4.66zm12.58 0l-5.32 8.83h5.06l5.322-8.83h-5.062zm12.98 0l-5.32 8.83h4.862l5.32-8.83h-4.86zM37.49 8.18h-1.855v1.845h-3.61V8.18h-1.753c-1.522 0-2.757-1.23-2.757-2.744V2.743C27.515 1.228 28.75 0 30.272 0h7.217c1.522 0 2.756 1.228 2.756 2.743v2.693c0 1.515-1.234 2.744-2.757 2.744zm1.002-5.337c0-.55-.45-.998-1.003-.998H30.27c-.554 0-1.002.447-1.002.998v2.593c0 .55.448.998 1.002.998h7.217c.553 0 1.002-.447 1.002-.998V2.843zM11.978 8.18h-1.854v1.845h-3.61V8.18H4.762c-1.52 0-2.755-1.23-2.755-2.744V2.743C2.005 1.228 3.24 0 4.76 0h7.218c1.523 0 2.757 1.228 2.757 2.743v2.693c0 1.515-1.234 2.744-2.757 2.744zm1.003-5.337c0-.55-.448-.998-1.002-.998H4.76c-.552 0-1 .447-1 .998v2.593c0 .55.448.998 1 .998h7.218c.554 0 1.003-.447 1.003-.998V2.843zm-2.054 28.08h20.298V23.54h5.313V40h-5.313v-3.69H10.926V40H5.613V23.54h5.313v7.383z" class="cls-1"/></svg>