<svg xmlns="http://www.w3.org/2000/svg" preserveAspectRatio="xMidYMid" width="42" height="40" viewBox="0 0 42 40"><defs><style>.cls-1 { fill: #000; fill-rule: evenodd; }</style></defs><path d="M38.885 17.9h-5.34l-9.7-9.68.134-5.26L26.96.045 32.21 0l9.612 9.635.178 5.172-3.115 3.094zm-8.978-1.158l-2.685 2.668-4.932-4.878 2.695-2.677 4.922 4.887zm-.81 7.453c.77-.24 1.594-.372 2.446-.372 4.498 0 8.143 3.622 8.143 8.09 0 1.343-.33 2.61-.915 3.727.072.053-3.89-5.452-3.89-5.452l-4.582.132-1.69 4.022s3.673 5.683 3.674 5.625c-.243.022-.49.033-.74.033-4.496 0-8.14-3.62-8.14-8.088 0-1.067.207-2.086.585-3.018l-12.905-12.82c-.912.352-1.903.545-2.94.545-4.496 0-8.14-3.622-8.14-8.09 0-1.337.325-2.598.903-3.71.8 1.175 3.896 5.788 3.896 5.788l4.54-.177 1.735-4.33S8.07 1.905 7.038.515c.362-.05.73-.074 1.105-.074 4.497 0 8.143 3.62 8.143 8.09 0 .884-.144 1.736-.41 2.534l13.22 13.13zm-9.93 3.216l-9.6 9.535-4.92-4.888 9.663-9.598 4.856 4.95z" class="cls-1"/></svg>