<svg xmlns="http://www.w3.org/2000/svg" preserveAspectRatio="xMidYMid" width="47" height="36" viewBox="0 0 47 36"><defs><style>.cls-1 { fill: #fff; fill-rule: evenodd; }</style></defs><path d="M45.312 29.844h-4.25c-.932 0-1.687-.756-1.687-1.688 0-.932.755-1.687 1.687-1.687h4.25c.932 0 1.688.754 1.688 1.686 0 .932-.756 1.688-1.688 1.688zm-4.81-5.024c-1.692.05-1.836.694-2.02.803-3.538-4.323-7.423-3.154-8.268-3.037-.19-1.38 0-2.74 0-2.74v-9.148h12.35l3.57 5.35v8.772h-5.632zm3.033-8.772l-1.786-2.89h-4.98l-.004 2.89v3.798h6.77v-3.798zm-15-7.06v13.96c-1.905.418-3.604 3.012-4.2 5.19h-6.163c-1.308-3.94-6.493-6.884-15.79-9.25v-4.873H0v-3.317h24.547l2.364-4.92h18.574l-2.137 3.21h-14.81zM9.91 9.023v.016H2.815l2.826-2.514h1.976l1.1-1.263v-.02h.017l.978-1.124h2.846L16.02 0h3.394l1.743 3.263h2.804l.894 2.086h.008l-1.79 3.674H9.91zm.35 15.582c3.186 0 5.768 2.55 5.768 5.697 0 3.146-2.582 5.697-5.767 5.697-3.184 0-5.766-2.55-5.766-5.697 0-3.146 2.582-5.697 5.767-5.697zm.082 7.275c.987 0 1.787-.79 1.787-1.764 0-.975-.8-1.765-1.788-1.765-.987 0-1.787.79-1.787 1.766 0 .975.8 1.765 1.787 1.765zm21.736-7.286c3.184 0 5.766 2.553 5.766 5.703 0 3.15-2.582 5.703-5.766 5.703s-5.766-2.553-5.766-5.703c0-3.15 2.582-5.703 5.766-5.703zM32.156 32c.967 0 1.75-.77 1.75-1.72 0-.948-.783-1.718-1.75-1.718-.966 0-1.75.77-1.75 1.72S31.19 32 32.156 32z" class="cls-1"/></svg>