<svg xmlns="http://www.w3.org/2000/svg" preserveAspectRatio="xMidYMid" width="31" height="40" viewBox="0 0 31 40"><defs><style>.cls-1 { fill: #000; fill-rule: evenodd; }</style></defs><path d="M30.995 40H.006c-.042-3.485.173-9.495 2.018-11.626.757-.874 1.487-2.202 6.598-1.79.973-.85 1.67-1.796 1.998-2.13.56 1.11 2.53 1.93 4.883 1.942v-.013c2.354-.01 4.325-.834 4.884-1.945.327.336 1.025 1.282 1.997 2.134 5.11-.414 5.84.916 6.597 1.79 1.845 2.134 2.06 8.15 2.018 11.638zm-7.33-26.525c.538.43.883 1.094.883 1.837v.424c0 1.216-.92 2.216-2.104 2.342-.63 3.432-2.92 6.75-6.99 6.75-4.095 0-6.478-3.216-7.004-6.813-1.012-.264-1.76-1.184-1.76-2.28v-.423c0-.743.345-1.406.883-1.837h16.093zm-.23-1.46H5.983V9.14h1.308c.782-2.988 2.55-5.132 5.1-6.083v6.036c0 .91.738 1.65 1.65 1.65h3.203c.91 0 1.65-.74 1.65-1.65V3.01c2.598.914 4.022 3.048 4.942 6.13h1.465v2.874h-1.868zM17.29 9.752h-3.44c-.39 0-.706-.317-.706-.707V.706c0-.39.316-.706.706-.706h3.44c.39 0 .707.316.707.707v8.34c0 .39-.318.706-.708.706z" class="cls-1"/></svg>