<svg xmlns="http://www.w3.org/2000/svg" preserveAspectRatio="xMidYMid" width="46" height="40" viewBox="0 0 46 40"><defs><style>.cls-1 { fill: #000; fill-rule: evenodd; }</style></defs><path d="M43.02 40l-3.024-4.35-3.177-.05-3.352 4.4h-8.57l6.973-12.35 1.928.82 3.23-4.77 2.655.768L46 40h-2.98zm-21.93-6.71l1.616-2.87-8.75-4.875 2.084 6.36L14.555 40h-3.328l1.376-7.017-2.292-6.155-2.498.05-.886 5.798L4.366 40H.922l2.41-7.222.47-9.438L0 22.314l.104-6.207 4.74-4.155 2.29.205 1.814-1.575C7.732 9.852 6.926 8.58 6.926 7.13c0-.255.026-.504.074-.746l8.72.957c-.103 1.912-1.608 3.477-3.576 3.822l.51 1.508 2.865.154.832 7.54 1.198 4.053-2.812-1.488-.573-1.745-.52-3.744-1.042 3.95.52 1.847 10.364 5.9 1.51-2.72L28.8 28.47l-3.907 6.822-3.802-2zM4.063 16.826L2.5 18.26v1.745l1.718.41-.156-3.59zM6.306 5.32C6.406 2.365 8.754 0 11.64 0c2.947 0 5.337 2.47 5.337 5.514 0 .317-.027.626-.076.928L6.307 5.32zm33.17 31.15L41.972 40h-7.695l3.01-3.53h2.187z" class="cls-1"/></svg>